<svg width="0" height="0" class="hidden"><symbol xmlns="http://www.w3.org/2000/svg" viewBox="0 0 64 64" id="source-code-1"><title>Source Code</title><desc>A line styled icon from Orion Icon Library.</desc><path data-name="layer1" fill="none" stroke="#202020" stroke-linecap="round" stroke-linejoin="round" stroke-width="2" d="M2 20v36h60V20M2 8h60v12H2z"></path><path data-name="layer2" fill="none" stroke="#202020" stroke-linecap="round" stroke-linejoin="round" stroke-width="2" d="M44 30l7 8-7 8M20 30l-7 8 7 8m16-18l-8 20"></path><circle data-name="layer1" cx="8" cy="14" r="1" fill="none" stroke="#202020" stroke-linecap="round" stroke-linejoin="round" stroke-width="2"></circle><circle data-name="layer1" cx="15" cy="14" r="1" fill="none" stroke="#202020" stroke-linecap="round" stroke-linejoin="round" stroke-width="2"></circle><circle data-name="layer1" cx="22" cy="14" r="1" fill="none" stroke="#202020" stroke-linecap="round" stroke-linejoin="round" stroke-width="2"></circle></symbol><symbol xmlns="http://www.w3.org/2000/svg" viewBox="0 0 64 64" id="videogame-controller-1"><title>Videogame Controller</title><desc>A line styled icon from Orion Icon Library.</desc><circle data-name="layer1" cx="44" cy="51" r="3" fill="none" stroke="#202020" stroke-linecap="round" stroke-linejoin="round" stroke-width="2"></circle><circle data-name="layer1" cx="54" cy="47" r="3" fill="none" stroke="#202020" stroke-linecap="round" stroke-linejoin="round" stroke-width="2"></circle><path data-name="layer1" fill="none" stroke="#202020" stroke-linecap="round" stroke-linejoin="round" stroke-width="2" d="M16 42v12m-6-6h12"></path><path data-name="layer2" d="M32 34v-7a9 9 0 0 1 9-9h5a8 8 0 0 0 8-8V2m-6 32H16a14 14 0 1 0 11.5 22h9A14 14 0 1 0 48 34z" fill="none" stroke="#202020" stroke-linecap="round" stroke-linejoin="round" stroke-width="2"></path><circle data-name="layer1" cx="28" cy="42" r="1" fill="none" stroke="#202020" stroke-linecap="round" stroke-linejoin="round" stroke-width="2"></circle><circle data-name="layer1" cx="36" cy="42" r="1" fill="none" stroke="#202020" stroke-linecap="round" stroke-linejoin="round" stroke-width="2"></circle></symbol><symbol xmlns="http://www.w3.org/2000/svg" viewBox="0 0 64 64" id="iphone-1"><title>Iphone</title><desc>A line styled icon from Orion Icon Library.</desc><path data-name="layer2" d="M14 59a3 3 0 0 0 3 3h30a3 3 0 0 0 3-3v-9H14zM50 5a3 3 0 0 0-3-3H17a3 3 0 0 0-3 3v5h36zm0 45V10m-36 0v40" fill="none" stroke="#202020" stroke-linecap="round" stroke-linejoin="round" stroke-width="2"></path><circle data-name="layer1" cx="32" cy="56" r="2" fill="none" stroke="#202020" stroke-linecap="round" stroke-linejoin="round" stroke-width="2"></circle></symbol><symbol xmlns="http://www.w3.org/2000/svg" viewBox="0 0 64 64" id="gameboy-1"><title>Gameboy</title><desc>A line styled icon from Orion Icon Library.</desc><circle data-name="layer2" cx="37" cy="51" r="2" fill="none" stroke="#202020" stroke-linecap="round" stroke-linejoin="round" stroke-width="2"></circle><circle data-name="layer2" cx="45" cy="47" r="2" fill="none" stroke="#202020" stroke-linecap="round" stroke-linejoin="round" stroke-width="2"></circle><path data-name="layer2" fill="none" stroke="#202020" stroke-linecap="round" stroke-linejoin="round" stroke-width="2" d="M24 42v12m-6-6h12"></path><path data-name="layer1" fill="none" stroke="#202020" stroke-linecap="round" stroke-linejoin="round" stroke-width="2" d="M20 10h24v24H20z"></path><rect data-name="layer1" x="12" y="2" width="40" height="60" rx="2" ry="2" fill="none" stroke="#202020" stroke-linecap="round" stroke-linejoin="round" stroke-width="2"></rect></symbol><symbol xmlns="http://www.w3.org/2000/svg" viewBox="0 0 64 64" id="processor-cpu-1"><title>Processor CPU</title><desc>A line styled icon from Orion Icon Library.</desc><rect data-name="layer2" x="12" y="12" width="40" height="40" rx="2" ry="2" fill="none" stroke="#202020" stroke-linecap="round" stroke-linejoin="round" stroke-width="2"></rect><path data-name="layer2" fill="none" stroke="#202020" stroke-linecap="round" stroke-linejoin="round" stroke-width="2" d="M32 12V2M22 12V2m20 10V2M22 62V52m20 10V52M32 62V52m20-20h10M52 22h10M52 42h10M2 22h10M2 42h10M2 32h10"></path><rect data-name="layer1" x="20" y="20" width="24" height="24" rx="2" ry="2" fill="none" stroke="#202020" stroke-linecap="round" stroke-linejoin="round" stroke-width="2"></rect></symbol></svg>